<svg width="162" height="32" fill="none" xmlns="http://www.w3.org/2000/svg"><path d="M.719 31V.922h3.738v13.105h3.867v3.653H4.457V31H.719Zm9.754-13.32v-3.653h3.824V.922h3.781V31h-3.781V17.68h-3.824Zm10.957 6.96V14.028c0-1.346.601-2.664 1.804-3.953 1.49-1.547 3.352-2.32 5.586-2.32v3.48c-1.69 0-2.864.702-3.523 2.106-.2.43-.3.86-.3 1.289v9.453c0 1.06.486 1.962 1.46 2.707a3.835 3.835 0 0 0 2.363.773v3.481c-2.721 0-4.826-1.103-6.316-3.309-.716-1.088-1.074-2.12-1.074-3.093Zm9.238 6.403v-3.48c1.518 0 2.607-.688 3.266-2.063.229-.458.343-.902.343-1.332v-9.54c0-1.174-.501-2.105-1.504-2.792-.63-.401-1.346-.602-2.148-.602v-3.48c2.635 0 4.67 1.074 6.102 3.223.716 1.06 1.074 2.076 1.074 3.05v10.614c0 1.403-.602 2.764-1.805 4.082-1.404 1.518-3.18 2.291-5.328 2.32Zm10.398-6.23V7.797h3.653v16.586c0 1.031.515 1.89 1.547 2.578.687.43 1.446.645 2.277.645v3.609c-2.75 0-4.87-1.074-6.36-3.223-.744-1.088-1.117-2.148-1.117-3.18Zm9.368 6.402v-3.61c1.547 0 2.678-.615 3.394-1.847.258-.459.387-.917.387-1.375V7.797h3.652v17.015c0 1.347-.616 2.679-1.847 3.997-1.49 1.575-3.352 2.377-5.586 2.406Zm9.925-6.317 3.395-.644c0 1.289.673 2.306 2.02 3.05.658.316 1.288.488 1.89.516v3.395c-2.779 0-4.855-1.003-6.23-3.008-.717-1.06-1.075-2.163-1.075-3.309Zm.215-10.57c0-2.607 1.189-4.54 3.567-5.8 1.145-.602 2.291-.903 3.437-.903v3.352c-1.318 0-2.335.544-3.05 1.632-.373.545-.56 1.118-.56 1.72 0 .916.717 1.66 2.15 2.233 1.088.459 3.193 1.06 6.316 1.805 1.948.401 3.337 1.36 4.168 2.88.43.801.644 1.704.644 2.706 0 2.75-1.103 4.784-3.308 6.102-1.29.773-2.765 1.16-4.426 1.16V27.82c1.317 0 2.42-.458 3.308-1.375.63-.659.946-1.432.946-2.32 0-1.146-1.132-2.063-3.395-2.75a68.414 68.414 0 0 0-2.75-.73c-1.346-.316-2.32-.573-2.922-.774-2.177-.86-3.495-2.163-3.953-3.91a7.509 7.509 0 0 1-.172-1.633Zm8.895-3.308V7.625c2.463 0 4.454.917 5.972 2.75.946 1.175 1.418 2.406 1.418 3.695l-3.394.559c0-1.576-.86-2.678-2.578-3.309-.516-.2-.989-.3-1.418-.3ZM79.78 24.64V13.985c.029-1.317.66-2.62 1.89-3.91 1.49-1.518 3.295-2.291 5.415-2.32v3.394c-1.375 0-2.45.602-3.223 1.805-.315.516-.472.988-.472 1.418v2.922h9.625v-2.922c0-1.289-.66-2.234-1.977-2.836a4.254 4.254 0 0 0-1.848-.43V7.754c1.977 0 3.739.702 5.286 2.105 1.289 1.232 1.947 2.593 1.976 4.082v6.832H83.391v3.868c0 .802.458 1.547 1.375 2.234.744.516 1.532.773 2.363.773V31c-2.607 0-4.655-1.06-6.145-3.18-.802-1.117-1.203-2.177-1.203-3.18Zm9.41 6.36v-3.395c1.72 0 3.008-.744 3.868-2.234.172-.315.3-.616.386-.902l3.051 1.117c-.515 1.977-1.69 3.466-3.523 4.469A7.876 7.876 0 0 1 89.19 31ZM98.601.922h3.782l7.648 26.125L108.656 31h-1.332L98.602.922Zm10.485 15.941L114.414.922h3.781c-.257.83-1.332 4.154-3.222 9.969a2270.644 2270.644 0 0 0-3.782 11.644h-.429l-1.676-5.672Zm11.172 5.758V8.484c0-1.518.644-3.065 1.933-4.64 1.719-2.063 3.896-3.108 6.532-3.137v3.738c-1.748 0-3.108.888-4.082 2.664-.401.774-.602 1.461-.602 2.063v13.45c0 1.804.888 3.207 2.664 4.21.745.43 1.404.645 1.977.645v3.738c-1.633 0-3.266-.587-4.899-1.762-2.32-1.719-3.495-3.996-3.523-6.832Zm10.785 8.594v-3.738c1.003 0 2.019-.444 3.051-1.332 1.088-.974 1.647-2.149 1.676-3.524V9.171c0-1.116-.459-2.19-1.375-3.222-.946-.974-2.063-1.475-3.352-1.504V.707c2.893 0 5.214 1.246 6.961 3.738 1.003 1.433 1.504 2.779 1.504 4.04V22.62c0 3.18-1.418 5.615-4.254 7.305-1.49.86-2.893 1.289-4.211 1.289ZM142.988 31h3.739V.922h-3.739V31Zm5.887-13.45h4.641c3.752-.028 6.101-1.46 7.046-4.296.373-1.146.559-2.507.559-4.082 0-5.242-2.363-7.992-7.09-8.25h-5.156v3.61h4.039c2.893.057 4.354 1.603 4.383 4.64-.057 3.122-1.504 4.698-4.34 4.726h-4.082v3.653Z" fill="#fff"/></svg>