<svg width="162" height="32" viewBox="0 0 162 32" fill="none" xmlns="http://www.w3.org/2000/svg">
<path d="M0.71875 31V0.921875H4.45703V14.0273H8.32422V17.6797H4.45703V31H0.71875ZM10.4727 17.6797V14.0273H14.2969V0.921875H18.0781V31H14.2969V17.6797H10.4727ZM21.4297 24.6406V14.0273C21.4297 12.681 22.0312 11.3633 23.2344 10.0742C24.724 8.52734 26.5859 7.75391 28.8203 7.75391V11.2344C27.1302 11.2344 25.9557 11.9362 25.2969 13.3398C25.0964 13.7695 24.9961 14.1992 24.9961 14.6289V24.082C24.9961 25.1419 25.4831 26.0443 26.457 26.7891C27.1445 27.3047 27.9323 27.5625 28.8203 27.5625V31.043C26.099 31.043 23.9935 29.9401 22.5039 27.7344C21.7878 26.6458 21.4297 25.6146 21.4297 24.6406ZM30.668 31.043V27.5625C32.1862 27.5625 33.2747 26.875 33.9336 25.5C34.1628 25.0417 34.2773 24.5977 34.2773 24.168V14.6289C34.2773 13.4544 33.776 12.5234 32.7734 11.8359C32.1432 11.4349 31.4271 11.2344 30.625 11.2344V7.75391C33.2604 7.75391 35.2943 8.82812 36.7266 10.9766C37.4427 12.0365 37.8008 13.0534 37.8008 14.0273V24.6406C37.8008 26.0443 37.1992 27.4049 35.9961 28.7227C34.5924 30.2409 32.8164 31.0143 30.668 31.043ZM41.0664 24.8125V7.79688H44.7188V24.3828C44.7188 25.4141 45.2344 26.2734 46.2656 26.9609C46.9531 27.3906 47.7122 27.6055 48.543 27.6055V31.2148C45.793 31.2148 43.6732 30.1406 42.1836 27.9922C41.4388 26.9036 41.0664 25.8438 41.0664 24.8125ZM50.4336 31.2148V27.6055C51.9805 27.6055 53.112 26.9896 53.8281 25.7578C54.0859 25.2995 54.2148 24.8411 54.2148 24.3828V7.79688H57.8672V24.8125C57.8672 26.1589 57.2513 27.4909 56.0195 28.8086C54.5299 30.3841 52.668 31.1862 50.4336 31.2148ZM60.3594 24.8984L63.7539 24.2539C63.7539 25.543 64.4271 26.5599 65.7734 27.3047C66.4323 27.6198 67.0625 27.7917 67.6641 27.8203V31.2148C64.8854 31.2148 62.8086 30.2122 61.4336 28.207C60.7174 27.1471 60.3594 26.0443 60.3594 24.8984ZM60.5742 14.3281C60.5742 11.7214 61.763 9.78776 64.1406 8.52734C65.2865 7.92578 66.4323 7.625 67.5781 7.625V10.9766C66.2604 10.9766 65.2435 11.5208 64.5273 12.6094C64.1549 13.1536 63.9688 13.7266 63.9688 14.3281C63.9688 15.2448 64.6849 15.9896 66.1172 16.5625C67.2057 17.0208 69.3112 17.6224 72.4336 18.3672C74.3815 18.7682 75.7708 19.7279 76.6016 21.2461C77.0312 22.0482 77.2461 22.9505 77.2461 23.9531C77.2461 26.7031 76.1432 28.737 73.9375 30.0547C72.6484 30.8281 71.1732 31.2148 69.5117 31.2148V27.8203C70.8294 27.8203 71.9323 27.362 72.8203 26.4453C73.4505 25.7865 73.7656 25.013 73.7656 24.125C73.7656 22.9792 72.6341 22.0625 70.3711 21.375C69.7982 21.2031 68.8815 20.9596 67.6211 20.6445C66.2747 20.3294 65.3008 20.0716 64.6992 19.8711C62.5221 19.0117 61.2044 17.7083 60.7461 15.9609C60.6315 15.4453 60.5742 14.901 60.5742 14.3281ZM69.4688 11.0195V7.625C71.9323 7.625 73.9232 8.54167 75.4414 10.375C76.3867 11.5495 76.8594 12.7812 76.8594 14.0703L73.4648 14.6289C73.4648 13.0534 72.6055 11.9505 70.8867 11.3203C70.3711 11.1198 69.8984 11.0195 69.4688 11.0195ZM79.7812 24.6406V13.9844C79.8099 12.6667 80.4401 11.3633 81.6719 10.0742C83.1615 8.55599 84.9661 7.78255 87.0859 7.75391V11.1484C85.7109 11.1484 84.6367 11.75 83.8633 12.9531C83.5482 13.4688 83.3906 13.9414 83.3906 14.3711V17.293H93.0156V14.3711C93.0156 13.082 92.3568 12.1367 91.0391 11.5352C90.4375 11.2487 89.8216 11.1055 89.1914 11.1055V7.75391C91.168 7.75391 92.9297 8.45573 94.4766 9.85938C95.7656 11.0911 96.4245 12.4518 96.4531 13.9414V20.7734H83.3906V24.6406C83.3906 25.4427 83.849 26.1875 84.7656 26.875C85.5104 27.3906 86.2982 27.6484 87.1289 27.6484V31C84.5221 31 82.474 29.9401 80.9844 27.8203C80.1823 26.7031 79.7812 25.6432 79.7812 24.6406ZM89.1914 31V27.6055C90.9102 27.6055 92.1992 26.8607 93.0586 25.3711C93.2305 25.056 93.3594 24.7552 93.4453 24.4688L96.4961 25.5859C95.9805 27.5625 94.806 29.0521 92.9727 30.0547C91.7982 30.6849 90.5378 31 89.1914 31ZM98.6016 0.921875H102.383L110.031 27.0469L108.656 31H107.324L98.6016 0.921875ZM109.086 16.8633L114.414 0.921875H118.195C117.938 1.7526 116.863 5.07552 114.973 10.8906C112.767 17.651 111.507 21.5326 111.191 22.5352H110.762L109.086 16.8633ZM120.258 22.6211V8.48438C120.258 6.96615 120.902 5.41927 122.191 3.84375C123.91 1.78125 126.087 0.735677 128.723 0.707031V4.44531C126.975 4.44531 125.615 5.33333 124.641 7.10938C124.24 7.88281 124.039 8.57031 124.039 9.17188V22.6211C124.039 24.4258 124.927 25.8294 126.703 26.832C127.448 27.2617 128.107 27.4766 128.68 27.4766V31.2148C127.047 31.2148 125.414 30.6276 123.781 29.4531C121.461 27.7344 120.286 25.457 120.258 22.6211ZM131.043 31.2148V27.4766C132.046 27.4766 133.062 27.0326 134.094 26.1445C135.182 25.1706 135.741 23.9961 135.77 22.6211V9.17188C135.77 8.05469 135.311 6.98047 134.395 5.94922C133.449 4.97526 132.332 4.47396 131.043 4.44531V0.707031C133.936 0.707031 136.257 1.95312 138.004 4.44531C139.007 5.8776 139.508 7.22396 139.508 8.48438V22.6211C139.508 25.8008 138.09 28.2357 135.254 29.9258C133.764 30.7852 132.361 31.2148 131.043 31.2148ZM142.988 31H146.727V0.921875H142.988V31ZM148.875 17.5508H153.516C157.268 17.5221 159.617 16.0898 160.562 13.2539C160.935 12.1081 161.121 10.7474 161.121 9.17188C161.121 3.92969 158.758 1.17969 154.031 0.921875C153.859 0.921875 153.688 0.921875 153.516 0.921875H148.875V4.53125H152.914C155.807 4.58854 157.268 6.13542 157.297 9.17188C157.24 12.2943 155.793 13.8698 152.957 13.8984H148.875V17.5508Z" fill="white"/>
</svg>
