<svg width="165" height="12" viewBox="0 0 165 12" fill="none" xmlns="http://www.w3.org/2000/svg">
<path d="M0.312 11L3.624 6.608L0.516 2.48H1.5L4.332 6.272H5.496V2.48H6.324V6.272H7.476L10.32 2.48H11.304L8.184 6.608L11.496 11H10.524L7.5 7.04H6.324V11H5.496V7.04H4.308L1.284 11H0.312ZM14.3802 11V2.48H15.2082V9.848L20.4882 2.48H21.2682V11H20.4402V3.764L15.2202 11H14.3802ZM30.9374 3.224H27.9014V11H27.0614V3.224H24.0254V2.48H30.9374V3.224ZM39.4136 11V3.224H35.9336L35.8856 5.024C35.8456 6.2 35.7616 7.176 35.6336 7.952C35.5056 8.728 35.3256 9.34 35.0936 9.788C34.8616 10.228 34.5776 10.544 34.2416 10.736C33.9056 10.92 33.5056 11.012 33.0416 11.012V10.268C33.3536 10.268 33.6296 10.188 33.8696 10.028C34.1096 9.868 34.3136 9.588 34.4816 9.188C34.6496 8.788 34.7816 8.236 34.8776 7.532C34.9816 6.82 35.0496 5.92 35.0816 4.832L35.1536 2.48H40.2416V11H39.4136ZM47.2444 11.06C46.6444 11.06 46.1004 10.94 45.6124 10.7C45.1244 10.46 44.7044 10.136 44.3524 9.728C44.0004 9.312 43.7284 8.848 43.5364 8.336C43.3444 7.816 43.2484 7.284 43.2484 6.74C43.2484 6.172 43.3484 5.632 43.5484 5.12C43.7484 4.6 44.0284 4.14 44.3884 3.74C44.7564 3.332 45.1844 3.012 45.6724 2.78C46.1604 2.54 46.6884 2.42 47.2564 2.42C47.8564 2.42 48.4004 2.544 48.8884 2.792C49.3764 3.04 49.7924 3.372 50.1364 3.788C50.4884 4.204 50.7604 4.668 50.9524 5.18C51.1444 5.692 51.2404 6.216 51.2404 6.752C51.2404 7.32 51.1404 7.864 50.9404 8.384C50.7404 8.896 50.4604 9.356 50.1004 9.764C49.7404 10.164 49.3164 10.48 48.8284 10.712C48.3404 10.944 47.8124 11.06 47.2444 11.06ZM44.0884 6.74C44.0884 7.204 44.1644 7.652 44.3164 8.084C44.4684 8.508 44.6844 8.888 44.9644 9.224C45.2444 9.552 45.5764 9.816 45.9604 10.016C46.3524 10.208 46.7804 10.304 47.2444 10.304C47.7324 10.304 48.1684 10.204 48.5524 10.004C48.9444 9.796 49.2764 9.524 49.5484 9.188C49.8284 8.844 50.0404 8.46 50.1844 8.036C50.3284 7.612 50.4004 7.18 50.4004 6.74C50.4004 6.276 50.3244 5.832 50.1724 5.408C50.0204 4.984 49.8004 4.604 49.5124 4.268C49.2324 3.932 48.9004 3.668 48.5164 3.476C48.1324 3.284 47.7084 3.188 47.2444 3.188C46.7644 3.188 46.3284 3.288 45.9364 3.488C45.5524 3.688 45.2204 3.96 44.9404 4.304C44.6684 4.64 44.4564 5.02 44.3044 5.444C44.1604 5.868 44.0884 6.3 44.0884 6.74ZM60.6721 8.804C60.6721 9.228 60.5641 9.608 60.3481 9.944C60.1321 10.272 59.8401 10.532 59.4721 10.724C59.1121 10.908 58.7161 11 58.2841 11H54.2641V2.48H58.3681C58.7681 2.48 59.1121 2.588 59.4001 2.804C59.6961 3.012 59.9201 3.284 60.0721 3.62C60.2321 3.948 60.3121 4.292 60.3121 4.652C60.3121 5.076 60.2041 5.468 59.9881 5.828C59.7721 6.188 59.4721 6.456 59.0881 6.632C59.5761 6.776 59.9601 7.044 60.2401 7.436C60.5281 7.828 60.6721 8.284 60.6721 8.804ZM59.8321 8.66C59.8321 8.372 59.7681 8.108 59.6401 7.868C59.5121 7.62 59.3361 7.42 59.1121 7.268C58.8961 7.116 58.6481 7.04 58.3681 7.04H55.1041V10.268H58.2841C58.5721 10.268 58.8321 10.192 59.0641 10.04C59.2961 9.888 59.4801 9.692 59.6161 9.452C59.7601 9.204 59.8321 8.94 59.8321 8.66ZM55.1041 3.212V6.356H58.0321C58.3121 6.356 58.5601 6.284 58.7761 6.14C58.9921 5.988 59.1641 5.792 59.2921 5.552C59.4201 5.312 59.4841 5.056 59.4841 4.784C59.4841 4.496 59.4241 4.236 59.3041 4.004C59.1841 3.764 59.0201 3.572 58.8121 3.428C58.6041 3.284 58.3681 3.212 58.1041 3.212H55.1041ZM63.7443 11V2.48H64.5723V9.848L69.8523 2.48H70.6323V11H69.8043V3.764L64.5843 11H63.7443ZM74.3015 11V2.48H75.1295V9.848L80.4095 2.48H81.1895V11H80.3615V3.764L75.1415 11H74.3015ZM77.7575 1.76C77.3655 1.76 77.0335 1.704 76.7615 1.592C76.4975 1.472 76.2975 1.312 76.1615 1.112C76.0255 0.904 75.9535 0.68 75.9455 0.439999H76.6055C76.6135 0.648 76.6975 0.835999 76.8575 1.004C77.0255 1.172 77.3255 1.256 77.7575 1.256C78.1735 1.256 78.4655 1.18 78.6335 1.028C78.8015 0.868 78.8895 0.672 78.8975 0.439999H79.5575C79.5495 0.68 79.4775 0.904 79.3415 1.112C79.2055 1.312 79.0055 1.472 78.7415 1.592C78.4855 1.704 78.1575 1.76 77.7575 1.76ZM89.3092 11V2.48H90.1492V6.272H91.4332L94.3612 2.48H95.3332L92.1292 6.608L95.5372 11H94.5052L91.4572 7.04H90.1492V11H89.3092ZM101.318 11.06C100.718 11.06 100.174 10.94 99.686 10.7C99.198 10.46 98.778 10.136 98.426 9.728C98.074 9.312 97.802 8.848 97.61 8.336C97.418 7.816 97.322 7.284 97.322 6.74C97.322 6.172 97.422 5.632 97.622 5.12C97.822 4.6 98.102 4.14 98.462 3.74C98.83 3.332 99.258 3.012 99.746 2.78C100.234 2.54 100.762 2.42 101.33 2.42C101.93 2.42 102.474 2.544 102.962 2.792C103.45 3.04 103.866 3.372 104.21 3.788C104.562 4.204 104.834 4.668 105.026 5.18C105.218 5.692 105.314 6.216 105.314 6.752C105.314 7.32 105.214 7.864 105.014 8.384C104.814 8.896 104.534 9.356 104.174 9.764C103.814 10.164 103.39 10.48 102.902 10.712C102.414 10.944 101.886 11.06 101.318 11.06ZM98.162 6.74C98.162 7.204 98.238 7.652 98.39 8.084C98.542 8.508 98.758 8.888 99.038 9.224C99.318 9.552 99.65 9.816 100.034 10.016C100.426 10.208 100.854 10.304 101.318 10.304C101.806 10.304 102.242 10.204 102.626 10.004C103.018 9.796 103.35 9.524 103.622 9.188C103.902 8.844 104.114 8.46 104.258 8.036C104.402 7.612 104.474 7.18 104.474 6.74C104.474 6.276 104.398 5.832 104.246 5.408C104.094 4.984 103.874 4.604 103.586 4.268C103.306 3.932 102.974 3.668 102.59 3.476C102.206 3.284 101.782 3.188 101.318 3.188C100.838 3.188 100.402 3.288 100.01 3.488C99.626 3.688 99.294 3.96 99.014 4.304C98.742 4.64 98.53 5.02 98.378 5.444C98.234 5.868 98.162 6.3 98.162 6.74ZM115.886 11V4.064L112.802 9.452H112.274L109.178 4.064V11H108.338V2.48H109.202L112.526 8.312L115.874 2.48H116.726V11H115.886ZM120.301 11V2.48H126.733V11H125.893V3.224H121.141V11H120.301ZM136.068 11V3.224H132.588L132.54 5.024C132.5 6.2 132.416 7.176 132.288 7.952C132.16 8.728 131.98 9.34 131.748 9.788C131.516 10.228 131.232 10.544 130.896 10.736C130.56 10.92 130.16 11.012 129.696 11.012V10.268C130.008 10.268 130.284 10.188 130.524 10.028C130.764 9.868 130.968 9.588 131.136 9.188C131.304 8.788 131.436 8.236 131.532 7.532C131.636 6.82 131.704 5.92 131.736 4.832L131.808 2.48H136.896V11H136.068ZM146.19 10.256V11H140.466V2.48H146.082V3.224H141.306V6.296H145.47V7.004H141.306V10.256H146.19ZM149.219 11V2.48H150.059V6.272H151.343L154.271 2.48H155.243L152.039 6.608L155.447 11H154.415L151.367 7.04H150.059V11H149.219ZM157.232 6.68C157.232 6.16 157.32 5.652 157.496 5.156C157.68 4.652 157.944 4.196 158.288 3.788C158.632 3.372 159.056 3.044 159.56 2.804C160.064 2.556 160.636 2.432 161.276 2.432C162.036 2.432 162.684 2.608 163.22 2.96C163.764 3.304 164.164 3.748 164.42 4.292L163.76 4.7C163.576 4.324 163.344 4.028 163.064 3.812C162.784 3.588 162.484 3.428 162.164 3.332C161.852 3.236 161.54 3.188 161.228 3.188C160.716 3.188 160.264 3.292 159.872 3.5C159.48 3.7 159.148 3.972 158.876 4.316C158.612 4.652 158.412 5.032 158.276 5.456C158.14 5.872 158.072 6.296 158.072 6.728C158.072 7.2 158.152 7.652 158.312 8.084C158.472 8.516 158.696 8.9 158.984 9.236C159.272 9.564 159.608 9.828 159.992 10.028C160.384 10.22 160.808 10.316 161.264 10.316C161.584 10.316 161.912 10.26 162.248 10.148C162.584 10.036 162.896 9.864 163.184 9.632C163.48 9.4 163.716 9.1 163.892 8.732L164.588 9.092C164.412 9.516 164.14 9.876 163.772 10.172C163.404 10.468 162.992 10.692 162.536 10.844C162.088 10.996 161.648 11.072 161.216 11.072C160.632 11.072 160.096 10.948 159.608 10.7C159.12 10.444 158.696 10.108 158.336 9.692C157.984 9.268 157.712 8.796 157.52 8.276C157.328 7.748 157.232 7.216 157.232 6.68Z" fill="white"/>
</svg>
